<mxfile host="app.diagrams.net" modified="2021-09-14T15:47:55.969Z" agent="5.0 (X11)" etag="atEhDmtMjtmlVEUunoR-" version="15.2.5" type="github">
  <diagram id="i2KGbX5AFUnQsAFwS1sw" name="Page-1">
    <mxGraphModel dx="1280" dy="744" grid="1" gridSize="10" guides="1" tooltips="1" connect="1" arrows="1" fold="1" page="1" pageScale="1" pageWidth="827" pageHeight="1169" math="0" shadow="0">
      <root>
        <mxCell id="0" />
        <mxCell id="1" parent="0" />
        <mxCell id="XE7aaH12fMkyCZEkIpx0-5" value="Start Up services" style="swimlane;fillColor=#f8cecc;strokeColor=#b85450;" parent="1" vertex="1">
          <mxGeometry x="30" y="40" width="200" height="390" as="geometry">
            <mxRectangle x="430" y="20" width="140" height="23" as="alternateBounds" />
          </mxGeometry>
        </mxCell>
        <mxCell id="XE7aaH12fMkyCZEkIpx0-14" value="" style="edgeStyle=orthogonalEdgeStyle;rounded=0;orthogonalLoop=1;jettySize=auto;html=1;entryX=0.5;entryY=0;entryDx=0;entryDy=0;exitX=0.5;exitY=1;exitDx=0;exitDy=0;fillColor=#f8cecc;strokeColor=#b85450;" parent="XE7aaH12fMkyCZEkIpx0-5" source="XE7aaH12fMkyCZEkIpx0-19" target="XE7aaH12fMkyCZEkIpx0-11" edge="1">
          <mxGeometry relative="1" as="geometry">
            <mxPoint x="100" y="90" as="sourcePoint" />
          </mxGeometry>
        </mxCell>
        <mxCell id="XE7aaH12fMkyCZEkIpx0-15" style="edgeStyle=orthogonalEdgeStyle;rounded=0;orthogonalLoop=1;jettySize=auto;html=1;exitX=0.5;exitY=1;exitDx=0;exitDy=0;entryX=0.5;entryY=0;entryDx=0;entryDy=0;fillColor=#f8cecc;strokeColor=#b85450;" parent="XE7aaH12fMkyCZEkIpx0-5" source="XE7aaH12fMkyCZEkIpx0-11" target="XE7aaH12fMkyCZEkIpx0-10" edge="1">
          <mxGeometry relative="1" as="geometry" />
        </mxCell>
        <mxCell id="XE7aaH12fMkyCZEkIpx0-11" value="Start database Service" style="shape=process;whiteSpace=wrap;html=1;backgroundOutline=1;fillColor=#ffe6cc;strokeColor=#d79b00;" parent="XE7aaH12fMkyCZEkIpx0-5" vertex="1">
          <mxGeometry x="40" y="120" width="120" height="60" as="geometry" />
        </mxCell>
        <mxCell id="XE7aaH12fMkyCZEkIpx0-16" style="edgeStyle=orthogonalEdgeStyle;rounded=0;orthogonalLoop=1;jettySize=auto;html=1;exitX=0.5;exitY=1;exitDx=0;exitDy=0;entryX=0.5;entryY=0;entryDx=0;entryDy=0;fillColor=#f8cecc;strokeColor=#b85450;" parent="XE7aaH12fMkyCZEkIpx0-5" source="XE7aaH12fMkyCZEkIpx0-10" target="XE7aaH12fMkyCZEkIpx0-9" edge="1">
          <mxGeometry relative="1" as="geometry" />
        </mxCell>
        <mxCell id="XE7aaH12fMkyCZEkIpx0-10" value="Start WeewX Service" style="shape=process;whiteSpace=wrap;html=1;backgroundOutline=1;fillColor=#dae8fc;strokeColor=#6c8ebf;" parent="XE7aaH12fMkyCZEkIpx0-5" vertex="1">
          <mxGeometry x="40" y="210" width="120" height="60" as="geometry" />
        </mxCell>
        <mxCell id="XE7aaH12fMkyCZEkIpx0-9" value="Start Grafana Service" style="shape=process;whiteSpace=wrap;html=1;backgroundOutline=1;fillColor=#e1d5e7;strokeColor=#9673a6;" parent="XE7aaH12fMkyCZEkIpx0-5" vertex="1">
          <mxGeometry x="40" y="300" width="120" height="60" as="geometry" />
        </mxCell>
        <mxCell id="XE7aaH12fMkyCZEkIpx0-13" style="edgeStyle=orthogonalEdgeStyle;rounded=0;orthogonalLoop=1;jettySize=auto;html=1;exitX=0.5;exitY=1;exitDx=0;exitDy=0;fillColor=#f8cecc;strokeColor=#b85450;" parent="XE7aaH12fMkyCZEkIpx0-5" edge="1">
          <mxGeometry relative="1" as="geometry">
            <mxPoint x="100" y="90" as="sourcePoint" />
            <mxPoint x="100" y="90" as="targetPoint" />
          </mxGeometry>
        </mxCell>
        <mxCell id="XE7aaH12fMkyCZEkIpx0-19" value="At turn on Server" style="rounded=1;whiteSpace=wrap;html=1;fillColor=#f8cecc;strokeColor=#b85450;arcSize=50;" parent="XE7aaH12fMkyCZEkIpx0-5" vertex="1">
          <mxGeometry x="50" y="50" width="100" height="40" as="geometry" />
        </mxCell>
        <mxCell id="XE7aaH12fMkyCZEkIpx0-31" value="" style="shape=image;verticalLabelPosition=bottom;labelBackgroundColor=#ffffff;verticalAlign=top;aspect=fixed;imageAspect=0;image=https://logos-marcas.com/wp-content/uploads/2020/11/Ubuntu-Emblema.png;" parent="XE7aaH12fMkyCZEkIpx0-5" vertex="1">
          <mxGeometry x="140" y="29.999999999999996" width="60" height="33.8" as="geometry" />
        </mxCell>
        <mxCell id="XE7aaH12fMkyCZEkIpx0-17" value="Database Service" style="swimlane;fillColor=#ffe6cc;strokeColor=#d79b00;" parent="1" vertex="1">
          <mxGeometry x="25" y="470" width="210" height="190" as="geometry" />
        </mxCell>
        <mxCell id="XE7aaH12fMkyCZEkIpx0-23" value="" style="shape=image;verticalLabelPosition=bottom;labelBackgroundColor=#ffffff;verticalAlign=top;aspect=fixed;imageAspect=0;image=https://d1.awsstatic.com/logos/partners/MariaDB_Logo.d8a208f0a889a8f0f0551b8391a065ea79c54f3a.png;fillColor=#ffe6cc;strokeColor=#d79b00;" parent="XE7aaH12fMkyCZEkIpx0-17" vertex="1">
          <mxGeometry x="110" y="30" width="90" height="46.32" as="geometry" />
        </mxCell>
        <mxCell id="XE7aaH12fMkyCZEkIpx0-28" style="edgeStyle=orthogonalEdgeStyle;rounded=0;orthogonalLoop=1;jettySize=auto;html=1;exitX=0.5;exitY=1;exitDx=0;exitDy=0;entryX=0.25;entryY=0;entryDx=0;entryDy=0;fillColor=#ffe6cc;strokeColor=#d79b00;" parent="XE7aaH12fMkyCZEkIpx0-17" source="XE7aaH12fMkyCZEkIpx0-25" target="XE7aaH12fMkyCZEkIpx0-27" edge="1">
          <mxGeometry relative="1" as="geometry" />
        </mxCell>
        <mxCell id="XE7aaH12fMkyCZEkIpx0-25" value="Start" style="rounded=1;whiteSpace=wrap;html=1;fillColor=#ffe6cc;strokeColor=#d79b00;arcSize=50;" parent="XE7aaH12fMkyCZEkIpx0-17" vertex="1">
          <mxGeometry x="16" y="38.16" width="50" height="30" as="geometry" />
        </mxCell>
        <mxCell id="XE7aaH12fMkyCZEkIpx0-27" value="Load database:&lt;br&gt;&lt;div align=&quot;left&quot;&gt;&lt;ul&gt;&lt;li&gt;user, password&lt;/li&gt;&lt;li&gt;tables&lt;/li&gt;&lt;/ul&gt;&lt;/div&gt;" style="rounded=0;whiteSpace=wrap;html=1;fillColor=#ffe6cc;strokeColor=#d79b00;" parent="XE7aaH12fMkyCZEkIpx0-17" vertex="1">
          <mxGeometry x="16" y="90" width="144" height="90" as="geometry" />
        </mxCell>
        <mxCell id="XE7aaH12fMkyCZEkIpx0-29" value="WeewX Service" style="swimlane;fillColor=#dae8fc;strokeColor=#6c8ebf;" parent="1" vertex="1">
          <mxGeometry x="250" y="40" width="730" height="620" as="geometry" />
        </mxCell>
        <mxCell id="XE7aaH12fMkyCZEkIpx0-30" value="" style="shape=image;verticalLabelPosition=bottom;labelBackgroundColor=#ffffff;verticalAlign=top;aspect=fixed;imageAspect=0;image=https://cosasdedevs.com/media/sections/images/python.png;fillColor=#dae8fc;strokeColor=#6c8ebf;" parent="XE7aaH12fMkyCZEkIpx0-29" vertex="1">
          <mxGeometry x="630" y="30.630000000000003" width="110" height="68.75" as="geometry" />
        </mxCell>
        <mxCell id="XE7aaH12fMkyCZEkIpx0-79" value="Yes" style="edgeStyle=orthogonalEdgeStyle;rounded=0;jumpStyle=none;orthogonalLoop=1;jettySize=auto;html=1;exitX=1;exitY=0.5;exitDx=0;exitDy=0;entryX=0.5;entryY=0;entryDx=0;entryDy=0;fillColor=#dae8fc;strokeColor=#6c8ebf;" parent="XE7aaH12fMkyCZEkIpx0-29" source="XE7aaH12fMkyCZEkIpx0-32" target="XE7aaH12fMkyCZEkIpx0-53" edge="1">
          <mxGeometry x="0.1557" relative="1" as="geometry">
            <mxPoint as="offset" />
          </mxGeometry>
        </mxCell>
        <mxCell id="XE7aaH12fMkyCZEkIpx0-82" value="No" style="edgeStyle=orthogonalEdgeStyle;rounded=0;jumpStyle=none;orthogonalLoop=1;jettySize=auto;html=1;exitX=0;exitY=0.5;exitDx=0;exitDy=0;entryX=0.5;entryY=0;entryDx=0;entryDy=0;entryPerimeter=0;fillColor=#dae8fc;strokeColor=#6c8ebf;" parent="XE7aaH12fMkyCZEkIpx0-29" source="XE7aaH12fMkyCZEkIpx0-32" target="XE7aaH12fMkyCZEkIpx0-81" edge="1">
          <mxGeometry x="0.1573" relative="1" as="geometry">
            <mxPoint as="offset" />
          </mxGeometry>
        </mxCell>
        <mxCell id="XE7aaH12fMkyCZEkIpx0-32" value="If&lt;br&gt;USB&amp;nbsp; Datalogger Presented" style="rhombus;whiteSpace=wrap;html=1;fillColor=#dae8fc;strokeColor=#6c8ebf;" parent="XE7aaH12fMkyCZEkIpx0-29" vertex="1">
          <mxGeometry x="60" y="100" width="120" height="110" as="geometry" />
        </mxCell>
        <mxCell id="XE7aaH12fMkyCZEkIpx0-71" style="edgeStyle=orthogonalEdgeStyle;rounded=0;jumpStyle=none;orthogonalLoop=1;jettySize=auto;html=1;exitX=0.5;exitY=1;exitDx=0;exitDy=0;entryX=0.5;entryY=0;entryDx=0;entryDy=0;fillColor=#dae8fc;strokeColor=#6c8ebf;" parent="XE7aaH12fMkyCZEkIpx0-29" source="XE7aaH12fMkyCZEkIpx0-33" target="XE7aaH12fMkyCZEkIpx0-32" edge="1">
          <mxGeometry relative="1" as="geometry" />
        </mxCell>
        <mxCell id="XE7aaH12fMkyCZEkIpx0-33" value="Start" style="rounded=1;whiteSpace=wrap;html=1;fillColor=#dae8fc;strokeColor=#6c8ebf;arcSize=50;" parent="XE7aaH12fMkyCZEkIpx0-29" vertex="1">
          <mxGeometry x="95" y="49.99999999999999" width="50" height="30" as="geometry" />
        </mxCell>
        <mxCell id="XGI2ahI1wu16D6c6kquG-34" style="edgeStyle=orthogonalEdgeStyle;rounded=0;orthogonalLoop=1;jettySize=auto;html=1;exitX=0.5;exitY=1;exitDx=0;exitDy=0;entryX=0.5;entryY=0;entryDx=0;entryDy=0;fillColor=#dae8fc;strokeColor=#6c8ebf;" edge="1" parent="XE7aaH12fMkyCZEkIpx0-29" source="XE7aaH12fMkyCZEkIpx0-35" target="XE7aaH12fMkyCZEkIpx0-85">
          <mxGeometry relative="1" as="geometry" />
        </mxCell>
        <mxCell id="XE7aaH12fMkyCZEkIpx0-35" value="Get current data hourly" style="rounded=0;whiteSpace=wrap;html=1;fillColor=#dae8fc;strokeColor=#6c8ebf;" parent="XE7aaH12fMkyCZEkIpx0-29" vertex="1">
          <mxGeometry x="465" y="278.78" width="100" height="40" as="geometry" />
        </mxCell>
        <mxCell id="XE7aaH12fMkyCZEkIpx0-59" value="Yes" style="edgeStyle=orthogonalEdgeStyle;rounded=0;jumpStyle=none;orthogonalLoop=1;jettySize=auto;html=1;exitX=0.5;exitY=0;exitDx=0;exitDy=0;entryX=0.5;entryY=0;entryDx=0;entryDy=0;fillColor=#dae8fc;strokeColor=#6c8ebf;" parent="XE7aaH12fMkyCZEkIpx0-29" source="XE7aaH12fMkyCZEkIpx0-39" target="XE7aaH12fMkyCZEkIpx0-46" edge="1">
          <mxGeometry x="-0.2228" relative="1" as="geometry">
            <mxPoint as="offset" />
          </mxGeometry>
        </mxCell>
        <mxCell id="XE7aaH12fMkyCZEkIpx0-39" value="If exist&lt;br&gt;new data saved in datalogger" style="rhombus;whiteSpace=wrap;html=1;rounded=0;direction=south;fillColor=#dae8fc;strokeColor=#6c8ebf;" parent="XE7aaH12fMkyCZEkIpx0-29" vertex="1">
          <mxGeometry x="144.94" y="350" width="110" height="110" as="geometry" />
        </mxCell>
        <mxCell id="XE7aaH12fMkyCZEkIpx0-67" style="edgeStyle=orthogonalEdgeStyle;rounded=0;jumpStyle=none;orthogonalLoop=1;jettySize=auto;html=1;exitX=0.5;exitY=1;exitDx=0;exitDy=0;entryX=0.5;entryY=0;entryDx=0;entryDy=0;fillColor=#dae8fc;strokeColor=#6c8ebf;" parent="XE7aaH12fMkyCZEkIpx0-29" source="XE7aaH12fMkyCZEkIpx0-46" target="XE7aaH12fMkyCZEkIpx0-66" edge="1">
          <mxGeometry relative="1" as="geometry">
            <mxPoint x="314.94000000000005" y="480" as="targetPoint" />
          </mxGeometry>
        </mxCell>
        <mxCell id="XE7aaH12fMkyCZEkIpx0-46" value="Get all new DATA" style="whiteSpace=wrap;html=1;rounded=0;fillColor=#dae8fc;strokeColor=#6c8ebf;" parent="XE7aaH12fMkyCZEkIpx0-29" vertex="1">
          <mxGeometry x="264.94" y="430" width="100" height="30" as="geometry" />
        </mxCell>
        <mxCell id="XE7aaH12fMkyCZEkIpx0-57" style="edgeStyle=orthogonalEdgeStyle;rounded=0;jumpStyle=none;orthogonalLoop=1;jettySize=auto;html=1;exitX=0.5;exitY=1;exitDx=0;exitDy=0;entryX=0.5;entryY=0;entryDx=0;entryDy=0;fillColor=#dae8fc;strokeColor=#6c8ebf;" parent="XE7aaH12fMkyCZEkIpx0-29" source="XE7aaH12fMkyCZEkIpx0-53" target="XE7aaH12fMkyCZEkIpx0-55" edge="1">
          <mxGeometry relative="1" as="geometry" />
        </mxCell>
        <mxCell id="XE7aaH12fMkyCZEkIpx0-53" value="Sync datetime " style="whiteSpace=wrap;html=1;fillColor=#dae8fc;strokeColor=#6c8ebf;" parent="XE7aaH12fMkyCZEkIpx0-29" vertex="1">
          <mxGeometry x="139.94" y="230" width="120" height="30" as="geometry" />
        </mxCell>
        <mxCell id="XE7aaH12fMkyCZEkIpx0-58" style="edgeStyle=orthogonalEdgeStyle;rounded=0;jumpStyle=none;orthogonalLoop=1;jettySize=auto;html=1;exitX=0.5;exitY=1;exitDx=0;exitDy=0;fillColor=#dae8fc;strokeColor=#6c8ebf;" parent="XE7aaH12fMkyCZEkIpx0-29" source="XE7aaH12fMkyCZEkIpx0-55" target="XE7aaH12fMkyCZEkIpx0-39" edge="1">
          <mxGeometry relative="1" as="geometry" />
        </mxCell>
        <mxCell id="XE7aaH12fMkyCZEkIpx0-55" value="Compare DATA in datalogger with database" style="whiteSpace=wrap;html=1;fillColor=#dae8fc;strokeColor=#6c8ebf;" parent="XE7aaH12fMkyCZEkIpx0-29" vertex="1">
          <mxGeometry x="129.94" y="280" width="140" height="50" as="geometry" />
        </mxCell>
        <mxCell id="XE7aaH12fMkyCZEkIpx0-63" value="" style="ellipse;whiteSpace=wrap;html=1;aspect=fixed;fillColor=#dae8fc;strokeColor=#6c8ebf;" parent="XE7aaH12fMkyCZEkIpx0-29" vertex="1">
          <mxGeometry x="192.44" y="530" width="15" height="15" as="geometry" />
        </mxCell>
        <mxCell id="XE7aaH12fMkyCZEkIpx0-65" value="No" style="edgeStyle=orthogonalEdgeStyle;rounded=0;jumpStyle=none;orthogonalLoop=1;jettySize=auto;html=1;entryX=0;entryY=0.5;entryDx=0;entryDy=0;exitX=0.5;exitY=1;exitDx=0;exitDy=0;fillColor=#dae8fc;strokeColor=#6c8ebf;" parent="XE7aaH12fMkyCZEkIpx0-29" source="XE7aaH12fMkyCZEkIpx0-39" target="XE7aaH12fMkyCZEkIpx0-63" edge="1">
          <mxGeometry x="-0.1334" relative="1" as="geometry">
            <mxPoint x="119.94" y="529.9999999999999" as="targetPoint" />
            <Array as="points">
              <mxPoint x="110" y="405" />
              <mxPoint x="110" y="538" />
            </Array>
            <mxPoint as="offset" />
          </mxGeometry>
        </mxCell>
        <mxCell id="XE7aaH12fMkyCZEkIpx0-70" style="edgeStyle=orthogonalEdgeStyle;rounded=0;jumpStyle=none;orthogonalLoop=1;jettySize=auto;html=1;exitX=0.5;exitY=1;exitDx=0;exitDy=0;entryX=1;entryY=0.5;entryDx=0;entryDy=0;fillColor=#dae8fc;strokeColor=#6c8ebf;" parent="XE7aaH12fMkyCZEkIpx0-29" source="XE7aaH12fMkyCZEkIpx0-66" target="XE7aaH12fMkyCZEkIpx0-63" edge="1">
          <mxGeometry relative="1" as="geometry" />
        </mxCell>
        <mxCell id="XE7aaH12fMkyCZEkIpx0-66" value="Send DATA to database" style="whiteSpace=wrap;html=1;rounded=0;fillColor=#dae8fc;strokeColor=#6c8ebf;" parent="XE7aaH12fMkyCZEkIpx0-29" vertex="1">
          <mxGeometry x="264.94" y="480" width="100" height="36" as="geometry" />
        </mxCell>
        <mxCell id="XE7aaH12fMkyCZEkIpx0-75" value="A" style="ellipse;whiteSpace=wrap;html=1;aspect=fixed;fillColor=#dae8fc;strokeColor=#6c8ebf;" parent="XE7aaH12fMkyCZEkIpx0-29" vertex="1">
          <mxGeometry x="186.16" y="572.44" width="27.56" height="27.56" as="geometry" />
        </mxCell>
        <mxCell id="XE7aaH12fMkyCZEkIpx0-76" value="" style="edgeStyle=orthogonalEdgeStyle;rounded=0;jumpStyle=none;orthogonalLoop=1;jettySize=auto;html=1;fillColor=#dae8fc;strokeColor=#6c8ebf;" parent="XE7aaH12fMkyCZEkIpx0-29" source="XE7aaH12fMkyCZEkIpx0-63" target="XE7aaH12fMkyCZEkIpx0-75" edge="1">
          <mxGeometry relative="1" as="geometry" />
        </mxCell>
        <mxCell id="XE7aaH12fMkyCZEkIpx0-83" style="edgeStyle=orthogonalEdgeStyle;rounded=0;jumpStyle=none;orthogonalLoop=1;jettySize=auto;html=1;exitX=0.5;exitY=1;exitDx=0;exitDy=0;fillColor=#dae8fc;strokeColor=#6c8ebf;" parent="XE7aaH12fMkyCZEkIpx0-29" source="XE7aaH12fMkyCZEkIpx0-77" target="XE7aaH12fMkyCZEkIpx0-78" edge="1">
          <mxGeometry relative="1" as="geometry" />
        </mxCell>
        <mxCell id="XE7aaH12fMkyCZEkIpx0-77" value="A" style="ellipse;whiteSpace=wrap;html=1;aspect=fixed;fillColor=#dae8fc;strokeColor=#6c8ebf;" parent="XE7aaH12fMkyCZEkIpx0-29" vertex="1">
          <mxGeometry x="501.2199999999999" y="80.00000000000003" width="27.56" height="27.56" as="geometry" />
        </mxCell>
        <mxCell id="XE7aaH12fMkyCZEkIpx0-86" value="Yes" style="edgeStyle=orthogonalEdgeStyle;rounded=0;jumpStyle=none;orthogonalLoop=1;jettySize=auto;html=1;exitX=0.5;exitY=1;exitDx=0;exitDy=0;entryX=0.5;entryY=0;entryDx=0;entryDy=0;fillColor=#dae8fc;strokeColor=#6c8ebf;" parent="XE7aaH12fMkyCZEkIpx0-29" source="XE7aaH12fMkyCZEkIpx0-78" target="XE7aaH12fMkyCZEkIpx0-35" edge="1">
          <mxGeometry relative="1" as="geometry" />
        </mxCell>
        <mxCell id="XE7aaH12fMkyCZEkIpx0-91" value="No" style="edgeStyle=orthogonalEdgeStyle;rounded=0;jumpStyle=none;orthogonalLoop=1;jettySize=auto;html=1;exitX=1;exitY=0.5;exitDx=0;exitDy=0;entryX=0.5;entryY=0;entryDx=0;entryDy=0;fillColor=#dae8fc;strokeColor=#6c8ebf;" parent="XE7aaH12fMkyCZEkIpx0-29" source="XE7aaH12fMkyCZEkIpx0-78" target="XE7aaH12fMkyCZEkIpx0-90" edge="1">
          <mxGeometry relative="1" as="geometry" />
        </mxCell>
        <mxCell id="XE7aaH12fMkyCZEkIpx0-78" value="While&lt;br&gt;USB&amp;nbsp; Datalogger Presented" style="rhombus;whiteSpace=wrap;html=1;fillColor=#dae8fc;strokeColor=#6c8ebf;" parent="XE7aaH12fMkyCZEkIpx0-29" vertex="1">
          <mxGeometry x="455" y="128.78" width="120" height="110" as="geometry" />
        </mxCell>
        <mxCell id="XE7aaH12fMkyCZEkIpx0-81" value="Sleep" style="rounded=1;whiteSpace=wrap;html=1;fillColor=#dae8fc;strokeColor=#6c8ebf;arcSize=50;" parent="XE7aaH12fMkyCZEkIpx0-29" vertex="1">
          <mxGeometry x="10" y="230" width="60" height="30" as="geometry" />
        </mxCell>
        <mxCell id="XE7aaH12fMkyCZEkIpx0-85" value="Send DATA to database" style="whiteSpace=wrap;html=1;rounded=0;fillColor=#dae8fc;strokeColor=#6c8ebf;" parent="XE7aaH12fMkyCZEkIpx0-29" vertex="1">
          <mxGeometry x="465" y="350" width="100" height="36" as="geometry" />
        </mxCell>
        <mxCell id="XE7aaH12fMkyCZEkIpx0-89" style="edgeStyle=orthogonalEdgeStyle;rounded=0;jumpStyle=none;orthogonalLoop=1;jettySize=auto;html=1;exitX=0.5;exitY=1;exitDx=0;exitDy=0;entryX=0;entryY=0.5;entryDx=0;entryDy=0;fillColor=#dae8fc;strokeColor=#6c8ebf;" parent="XE7aaH12fMkyCZEkIpx0-29" source="XE7aaH12fMkyCZEkIpx0-85" target="XE7aaH12fMkyCZEkIpx0-78" edge="1">
          <mxGeometry relative="1" as="geometry">
            <mxPoint x="450" y="178.78" as="targetPoint" />
            <Array as="points">
              <mxPoint x="515" y="410" />
              <mxPoint x="420" y="410" />
              <mxPoint x="420" y="184" />
            </Array>
          </mxGeometry>
        </mxCell>
        <mxCell id="XE7aaH12fMkyCZEkIpx0-90" value="Sleep" style="rounded=1;whiteSpace=wrap;html=1;fillColor=#dae8fc;strokeColor=#6c8ebf;arcSize=50;" parent="XE7aaH12fMkyCZEkIpx0-29" vertex="1">
          <mxGeometry x="610" y="238.78" width="60" height="30" as="geometry" />
        </mxCell>
        <mxCell id="XGI2ahI1wu16D6c6kquG-1" value="Grafana Service" style="swimlane;fillColor=#e1d5e7;strokeColor=#9673a6;" vertex="1" parent="1">
          <mxGeometry x="1020" y="40" width="650" height="520" as="geometry" />
        </mxCell>
        <mxCell id="XGI2ahI1wu16D6c6kquG-2" value="" style="shape=image;verticalLabelPosition=bottom;labelBackgroundColor=#ffffff;verticalAlign=top;aspect=fixed;imageAspect=0;image=https://www.icm.es/wp-content/uploads/2020/03/Sin-t%C3%ADtulo-1-6.jpg;fillColor=#e1d5e7;strokeColor=#9673a6;" vertex="1" parent="XGI2ahI1wu16D6c6kquG-1">
          <mxGeometry x="580" y="30" width="70" height="70" as="geometry" />
        </mxCell>
        <mxCell id="XGI2ahI1wu16D6c6kquG-11" style="edgeStyle=orthogonalEdgeStyle;rounded=0;orthogonalLoop=1;jettySize=auto;html=1;exitX=0.5;exitY=1;exitDx=0;exitDy=0;entryX=0.5;entryY=0;entryDx=0;entryDy=0;fillColor=#e1d5e7;strokeColor=#9673a6;" edge="1" parent="XGI2ahI1wu16D6c6kquG-1" source="XGI2ahI1wu16D6c6kquG-4" target="XGI2ahI1wu16D6c6kquG-8">
          <mxGeometry relative="1" as="geometry" />
        </mxCell>
        <mxCell id="XGI2ahI1wu16D6c6kquG-4" value="Start" style="rounded=1;whiteSpace=wrap;html=1;fillColor=#e1d5e7;strokeColor=#9673a6;arcSize=50;" vertex="1" parent="XGI2ahI1wu16D6c6kquG-1">
          <mxGeometry x="199" y="50" width="50" height="30" as="geometry" />
        </mxCell>
        <mxCell id="XGI2ahI1wu16D6c6kquG-8" value="Start Web service" style="rounded=0;whiteSpace=wrap;html=1;fillColor=#e1d5e7;strokeColor=#9673a6;" vertex="1" parent="XGI2ahI1wu16D6c6kquG-1">
          <mxGeometry x="169" y="105" width="110" height="35" as="geometry" />
        </mxCell>
        <mxCell id="XGI2ahI1wu16D6c6kquG-17" value="Yes" style="edgeStyle=orthogonalEdgeStyle;rounded=0;orthogonalLoop=1;jettySize=auto;html=1;exitX=1;exitY=0.5;exitDx=0;exitDy=0;entryX=0.5;entryY=0;entryDx=0;entryDy=0;fillColor=#e1d5e7;strokeColor=#9673a6;" edge="1" parent="XGI2ahI1wu16D6c6kquG-1" source="XGI2ahI1wu16D6c6kquG-13" target="XGI2ahI1wu16D6c6kquG-15">
          <mxGeometry relative="1" as="geometry" />
        </mxCell>
        <mxCell id="XGI2ahI1wu16D6c6kquG-20" value="No" style="edgeStyle=orthogonalEdgeStyle;rounded=0;orthogonalLoop=1;jettySize=auto;html=1;exitX=0;exitY=0.5;exitDx=0;exitDy=0;entryX=0.5;entryY=0;entryDx=0;entryDy=0;fillColor=#e1d5e7;strokeColor=#9673a6;" edge="1" parent="XGI2ahI1wu16D6c6kquG-1" source="XGI2ahI1wu16D6c6kquG-13" target="XGI2ahI1wu16D6c6kquG-18">
          <mxGeometry relative="1" as="geometry" />
        </mxCell>
        <mxCell id="XGI2ahI1wu16D6c6kquG-13" value="If&lt;br&gt;Log In Is&lt;br&gt;Admin" style="rhombus;whiteSpace=wrap;html=1;rounded=0;fillColor=#e1d5e7;strokeColor=#9673a6;" vertex="1" parent="XGI2ahI1wu16D6c6kquG-1">
          <mxGeometry x="184" y="170" width="80" height="80" as="geometry" />
        </mxCell>
        <mxCell id="XGI2ahI1wu16D6c6kquG-14" value="" style="edgeStyle=orthogonalEdgeStyle;rounded=0;orthogonalLoop=1;jettySize=auto;html=1;fillColor=#e1d5e7;strokeColor=#9673a6;" edge="1" parent="XGI2ahI1wu16D6c6kquG-1" source="XGI2ahI1wu16D6c6kquG-8" target="XGI2ahI1wu16D6c6kquG-13">
          <mxGeometry relative="1" as="geometry" />
        </mxCell>
        <mxCell id="XGI2ahI1wu16D6c6kquG-22" style="edgeStyle=orthogonalEdgeStyle;rounded=0;orthogonalLoop=1;jettySize=auto;html=1;exitX=0.5;exitY=1;exitDx=0;exitDy=0;entryX=1;entryY=0.5;entryDx=0;entryDy=0;fillColor=#e1d5e7;strokeColor=#9673a6;" edge="1" parent="XGI2ahI1wu16D6c6kquG-1" source="XGI2ahI1wu16D6c6kquG-15" target="XGI2ahI1wu16D6c6kquG-21">
          <mxGeometry relative="1" as="geometry" />
        </mxCell>
        <mxCell id="XGI2ahI1wu16D6c6kquG-15" value="Allow user to:&lt;br&gt;&lt;ul&gt;&lt;li&gt;Manage databases&lt;/li&gt;&lt;li&gt;Modify Dashboard&lt;/li&gt;&lt;/ul&gt;" style="whiteSpace=wrap;html=1;rounded=0;fillColor=#e1d5e7;strokeColor=#9673a6;" vertex="1" parent="XGI2ahI1wu16D6c6kquG-1">
          <mxGeometry x="254" y="250" width="156" height="90" as="geometry" />
        </mxCell>
        <mxCell id="XGI2ahI1wu16D6c6kquG-23" style="edgeStyle=orthogonalEdgeStyle;rounded=0;orthogonalLoop=1;jettySize=auto;html=1;exitX=0.5;exitY=1;exitDx=0;exitDy=0;entryX=0;entryY=0.5;entryDx=0;entryDy=0;fillColor=#e1d5e7;strokeColor=#9673a6;" edge="1" parent="XGI2ahI1wu16D6c6kquG-1" source="XGI2ahI1wu16D6c6kquG-18" target="XGI2ahI1wu16D6c6kquG-21">
          <mxGeometry relative="1" as="geometry" />
        </mxCell>
        <mxCell id="XGI2ahI1wu16D6c6kquG-18" value="Allow user to:&lt;br&gt;&lt;div&gt;&lt;ul&gt;&lt;li&gt;Only view Dashboard&lt;/li&gt;&lt;/ul&gt;&lt;/div&gt;" style="whiteSpace=wrap;html=1;rounded=0;fillColor=#e1d5e7;strokeColor=#9673a6;" vertex="1" parent="XGI2ahI1wu16D6c6kquG-1">
          <mxGeometry x="43" y="250" width="156" height="70" as="geometry" />
        </mxCell>
        <mxCell id="XGI2ahI1wu16D6c6kquG-25" style="edgeStyle=orthogonalEdgeStyle;rounded=0;orthogonalLoop=1;jettySize=auto;html=1;exitX=0.5;exitY=1;exitDx=0;exitDy=0;entryX=0.5;entryY=0;entryDx=0;entryDy=0;fillColor=#e1d5e7;strokeColor=#9673a6;" edge="1" parent="XGI2ahI1wu16D6c6kquG-1" source="XGI2ahI1wu16D6c6kquG-21" target="XGI2ahI1wu16D6c6kquG-24">
          <mxGeometry relative="1" as="geometry" />
        </mxCell>
        <mxCell id="XGI2ahI1wu16D6c6kquG-21" value="" style="ellipse;whiteSpace=wrap;html=1;aspect=fixed;fillColor=#e1d5e7;strokeColor=#9673a6;" vertex="1" parent="XGI2ahI1wu16D6c6kquG-1">
          <mxGeometry x="216.50000000000006" y="360" width="15" height="15" as="geometry" />
        </mxCell>
        <mxCell id="XGI2ahI1wu16D6c6kquG-24" value="Launch &lt;b&gt;Dashboard&lt;/b&gt;" style="shape=process;whiteSpace=wrap;html=1;backgroundOutline=1;fillColor=#e1d5e7;strokeColor=#9673a6;" vertex="1" parent="XGI2ahI1wu16D6c6kquG-1">
          <mxGeometry x="164" y="400" width="120" height="60" as="geometry" />
        </mxCell>
        <mxCell id="XGI2ahI1wu16D6c6kquG-30" style="edgeStyle=orthogonalEdgeStyle;rounded=0;orthogonalLoop=1;jettySize=auto;html=1;exitX=0.5;exitY=1;exitDx=0;exitDy=0;entryX=0.5;entryY=0;entryDx=0;entryDy=0;fillColor=#e1d5e7;strokeColor=#9673a6;" edge="1" parent="XGI2ahI1wu16D6c6kquG-1" source="XGI2ahI1wu16D6c6kquG-27" target="XGI2ahI1wu16D6c6kquG-29">
          <mxGeometry relative="1" as="geometry" />
        </mxCell>
        <mxCell id="XGI2ahI1wu16D6c6kquG-27" value="&lt;b&gt;Dashboard&lt;/b&gt;" style="rounded=1;whiteSpace=wrap;html=1;fillColor=#e1d5e7;strokeColor=#9673a6;arcSize=50;" vertex="1" parent="XGI2ahI1wu16D6c6kquG-1">
          <mxGeometry x="482.5" y="120" width="90" height="30" as="geometry" />
        </mxCell>
        <mxCell id="XGI2ahI1wu16D6c6kquG-29" value="Link with database" style="rounded=0;whiteSpace=wrap;html=1;fillColor=#e1d5e7;strokeColor=#9673a6;" vertex="1" parent="XGI2ahI1wu16D6c6kquG-1">
          <mxGeometry x="467.5" y="180" width="120" height="35" as="geometry" />
        </mxCell>
        <mxCell id="XGI2ahI1wu16D6c6kquG-36" style="edgeStyle=orthogonalEdgeStyle;rounded=0;orthogonalLoop=1;jettySize=auto;html=1;exitX=0.5;exitY=1;exitDx=0;exitDy=0;entryX=0.5;entryY=0;entryDx=0;entryDy=0;fillColor=#e1d5e7;strokeColor=#9673a6;" edge="1" parent="XGI2ahI1wu16D6c6kquG-1" source="XGI2ahI1wu16D6c6kquG-31" target="XGI2ahI1wu16D6c6kquG-33">
          <mxGeometry relative="1" as="geometry" />
        </mxCell>
        <mxCell id="XGI2ahI1wu16D6c6kquG-31" value="Make queries based on DATA required" style="whiteSpace=wrap;html=1;rounded=0;fillColor=#e1d5e7;strokeColor=#9673a6;" vertex="1" parent="XGI2ahI1wu16D6c6kquG-1">
          <mxGeometry x="467.5" y="235" width="120" height="50" as="geometry" />
        </mxCell>
        <mxCell id="XGI2ahI1wu16D6c6kquG-32" value="" style="edgeStyle=orthogonalEdgeStyle;rounded=0;orthogonalLoop=1;jettySize=auto;html=1;fillColor=#e1d5e7;strokeColor=#9673a6;" edge="1" parent="XGI2ahI1wu16D6c6kquG-1" source="XGI2ahI1wu16D6c6kquG-29" target="XGI2ahI1wu16D6c6kquG-31">
          <mxGeometry relative="1" as="geometry" />
        </mxCell>
        <mxCell id="XGI2ahI1wu16D6c6kquG-38" style="edgeStyle=orthogonalEdgeStyle;rounded=0;orthogonalLoop=1;jettySize=auto;html=1;exitX=0.5;exitY=1;exitDx=0;exitDy=0;entryX=0.5;entryY=0;entryDx=0;entryDy=0;fillColor=#e1d5e7;strokeColor=#9673a6;" edge="1" parent="XGI2ahI1wu16D6c6kquG-1" source="XGI2ahI1wu16D6c6kquG-33" target="XGI2ahI1wu16D6c6kquG-37">
          <mxGeometry relative="1" as="geometry" />
        </mxCell>
        <mxCell id="XGI2ahI1wu16D6c6kquG-33" value="Convert DATA from Imperial units to SI" style="whiteSpace=wrap;html=1;rounded=0;fillColor=#e1d5e7;strokeColor=#9673a6;" vertex="1" parent="XGI2ahI1wu16D6c6kquG-1">
          <mxGeometry x="467.5" y="305" width="120" height="50" as="geometry" />
        </mxCell>
        <mxCell id="XGI2ahI1wu16D6c6kquG-37" value="Graph formatted Data in time plots" style="whiteSpace=wrap;html=1;rounded=0;fillColor=#e1d5e7;strokeColor=#9673a6;" vertex="1" parent="XGI2ahI1wu16D6c6kquG-1">
          <mxGeometry x="460" y="375" width="135" height="50" as="geometry" />
        </mxCell>
        <mxCell id="XGI2ahI1wu16D6c6kquG-39" value="Periodic Task" style="swimlane;fillColor=#d5e8d4;strokeColor=#82b366;" vertex="1" parent="1">
          <mxGeometry x="25" y="710" width="640" height="620" as="geometry" />
        </mxCell>
        <mxCell id="XGI2ahI1wu16D6c6kquG-52" value="" style="shape=image;verticalLabelPosition=bottom;labelBackgroundColor=#ffffff;verticalAlign=top;aspect=fixed;imageAspect=0;image=https://upload.wikimedia.org/wikipedia/commons/thumb/8/82/Gnu-bash-logo.svg/800px-Gnu-bash-logo.svg.png;fillColor=#d5e8d4;strokeColor=#82b366;" vertex="1" parent="XGI2ahI1wu16D6c6kquG-39">
          <mxGeometry x="330" y="30" width="71.24" height="30" as="geometry" />
        </mxCell>
        <mxCell id="XGI2ahI1wu16D6c6kquG-53" value="" style="shape=image;verticalLabelPosition=bottom;labelBackgroundColor=#ffffff;verticalAlign=top;aspect=fixed;imageAspect=0;image=data:image/png,iVBORw0KGgoAAAANSUhEUgAAAUsAAACYCAMAAABatDuZAAAAmVBMVEX///8fHjccGzUSES8AACgAACQmJj8NCyxvbnsaGTQAACLDw8c6Okzg4OP7+/vMzM+Ih5G8vMJ1dX+amaAAACcAAB/x8fKop68AABsWFTFAQFHt7e8QDi729vcIBSoAABeOjZfV1dnd3OBHR1izs7ktLEKWlp9YV2dmZnPm5ucAAAoAAAB/f4pRUGBycn69vcOsrLM0M0lfX23vOnPGAAAKsElEQVR4nO2da3uiOBSAuUUEtdYCKoIU7zqLrfb//7jVKorknBAw3Xlm9rwf5sOCCbxNTi4cWE0jCIIgCIIgCIIgCIIgCIIgiL+dF57ffUl/LJNumVXnd1/Tn4oeOiUCctmQlqGXYOSyIeRSHeRSHeRSHeRSHeRSHeRSHeRSHeRSHeRSHeRSHeRSHeRSHeRSHeRSHeRSHeRSHeRSHeRSHeRSHeRSHeRSHeRSHeRSHeRSHeRSHeRSHeRSHeSyipco6kWRzJl/istodlinaZauD/Phf1Tly26ZblbB+3gcjMfv7PiVDnbC5FT1LqfDaYnh9HasX2Qma6WfLfzATxLbThI/ML6WeYFRj2OXVzXnj2n4z3rlP1HnresyO7zrccyEsW4msCPpcgjU/nh9N7IgKeFur4deJgErYh3TWaXI4do53VPhAg3TZ6+XTtcOrBJBXlf/V/kQC6+6ZoFfPmb5/3wW6uxlMYudspmz0JglGX/PdVzuWoyr/RvXmpbPfU3KJcbt66Ft+ZCTBAtxNximscVdoq4nlnc++haXD5h5XX23fMhoXVz2HMASS+91zr5cG6gzL8YONnALkHK5c0KoVF0P7T538quN3V/GoCLYXhDYlw5k8nxH/iJq5nKqAzfjf9xvdstM+G7vlfibeUOX8xamUgeKRF163N1dD1tY0xx+BXj7MK1+E5fTBWDK/rrV6QVcmVDlwZofhiRczsHIcS6wBbUozOUAUXm6yWIHK1a84op6+JnVyTgvlS6/uBB0+lH3NpgtoL4D4Xd35eutdjmHwssZuwuOw4jL/rvgwoIMKKgfIN0hx2AL7tKqXLZ9vhzHyFV2rKrufSf0P0sXXOlyZiEqrT082YJd9kK8t+qPoT+XkQh/8Q1/aUKXUy0Fmp1h5gPzwa2usvC78aieyz4S+3X/S4MBXU6xkJsz5iKLIFQKELp8GQX8LwyWj5+HulW6jzIrXKIq2RuiEna5r+o7hv44uYpaSHeoQOSyuwRU6sHy+gvwqJjxQd5lB/tLuVCAw1yGH29AwC9hpQ+lbGRGUwCBy9NB4Aeud/3BvFYHv3Bv05UuO1irDNaoSsDlafklcVlOsWGO0EG/AqFLAPZ6PX8IBN9qHKcwlRG5HIyReTIrBd0ql1K4g3sZUdwoWOq1XVr5klNrN7vsuDBsCFwOGKLyFmGUujS39zI+GpZR12W8v7ebhhUG9yaAu1wisdKx+HWjCpeGcytijo4CRmhbVuwIVkN1XIarW1xZoT3cMW3LNvHDq9vUEHW5RP5QjlmxtdPUpe7fFhJbJL6Gvr7JRt7bJPaxe6vj0tFvNY6AKfwZI7GO7fSQfhwtbLp7D3iYywNyKaHJLZ1UubyNiTt4HWcE+8G1DUSHCbLWq+HSsG6t4gVplom+zufxvXULnowYZoXLEbLii/lVqIRLw+Th/8q3QJ2CF22ag2I1IwbevtDl44vy7/cJyyco3gjeiqvkYQZHPTcvB3aJTUmSSfVWOO/SOLa3ZdpdrmLr2lleupClZFHaKe0doaWU0OWkyLEwgm6gooykPMYuwTliuBG59JBYaWHrRrFL8wM47Y2Licl10jqDRh57w63+waWRaN2jRxr8XZEheL/AdAUc7Q0zQl32oVXr95EtV7icyzZwGu/STi9H1kAXL4yWd2bAcCByaWCdagAFXz8FzkwtyEsHc+nsofPPP8HXjWpcXpcge6DDBeDkweNHX5FLB3PJbymfeu4EOhOMP/mF8y6xtVSQSql83iXQK2IoSpzgr7VRu4T+esjjWKgJ5wETcAliBKJ1o0qXPcClj8xpR1wXauJyCMyIHLBZwsKM65Rf0qXBhOtGlS77/F/e6SJ1Rdy5TVzugKCWePC5YDR3hzVcGtxWLc6zLpd8EMS6uKZxDymauIR6gostlKG5VnB5hCjl0mhVpwTceNalx//hrQNQwDfcarOJyxmgZ4w9aIbmT9eRUc7lqnK1c+dZl0An8tEAk5VH4CYuO8B48o7VOAX6+HWckuvjjiMv81mXnJ6TywFQwKUUFS6BCC1wCQRXdnkiKTn2hC1pmT/g0kLnEEr6OBQvA+x+oT7u1ujj+nmrTyoFUYFLoI+DBZx5Of7U2MNqjT31XOqhLinzB8YedE7EW2g0JwKWPQn2RAu4PH1cZ070fZVHOZnPuhwA27IMmUfwu3NNXE651n368x2R24Pm6jo6Vwe2Fi//HUwfUu4S6kTIBHPK74E1WkNCW26snOFyARrzwz2m2cxQmV0ZmU+vIaF9LXhvg0/1FO+5YS4z4FEAvLehTYDdivgNc8n6aIaBCWdjqXWpQfvQYMTsA9GgkUuosSF7btBzoXx9De4FYw97pGQ+7RLc5E74MoZQ/2nkMgL3ghk/q/0Ed3aTncClhu0G6/GEy6lW7pLf/Dnjb0u7wXNwc7BRvAQ33XTD5Z5RgBkDt2iAPTvDZJrHKplPu0SejieThynfKKn77Ezgcgk/1Qyy4s1OMzj5ws93C7Bnumu0ZZafYSl3yW/+XHDcTeda927U8uGY3szlVIdLS0wvX/9E6xh5pmvlHQbNNUibdvPnXXrIQxI9dONN9vr6MWFY0lizeIlXaSTuIlt762zBsFyDe4IengOTYQOQLW6Zz7sc4hnBRhjbgoSUxi6neNpyGCdJgqXsn58i3SaKgtws8BWSM/ZC9Crb8y6heaMsDV1qnmzOfxl234AX5Qx+IEk2YpkKXA7RLlxJU5fapCIJHCEsTHyFuawbLHDZe+Bq1LnURk1bSXOXM6zhCDH8wgt94hzrDdbZksWPuqzOb8do7FLz6qern2ZNxZ3Vitz/BZa0lmzK16LUZYTk0VbS3KXWxnohzmP6RYXL6QLLwUdlKnGpdZD5YxVPuHxBeyGG/5gUVPV+z/SI9TZMphqX2hJJli9i1HtXqsLlKbLUa5nl/KrK986iFSoTznpT5BJZ/BZxVvXe4at0qW3rjHlcflX1+5DRCpstJOBorsql1q949zhu7eq9W1rtUkvfZd9MCX9xD/Qk3tPdoesMMB9TmUst2ouaJtsPa77zLOFS66+kgqbBFvzr3jLvj/eAuHTBAmKmOpeadkiw5aT5/bqWepfaNHMr52PG9bMKDVxqM/SlS6BlqnT5/YkIKPuXbb7nyD/g8tR0vnzBJyLOL+XEr2BJct/b6GMvPgMD0Cv37ZJgy5eotfnTwFzZobcIrIeI7Vju5rqVKXLJfbvET2S/OzPPYixWG0nQ9ZByEpeV+AWltPXLZ934p9yaOmuvDJQOtOTO8uAnf6dbG33558s86Tj96y6827pN4HI34pH/X18Ol9tTfWbxpSzDCG3m6in+ptjngAPM/pjx512pkQL3BNGs8znylp3+wwdtBC6fpz/aThwWMP8EcwPzuM8G2Od0/gJ+1OWZaDfrHA6H898wqnzS9Wfz4y7/R5BLdZBLdZBLdZBLdZBLdfD52ORSit1KYqudXMowbZlGGXLZjL3U15/IpQTQtxbJZSPQhBxyWZe17DfJyGUVB+nng+SyAvRlBHJZF+gbJeSyEZEod5Vc1mGI5jqQy7rIzdHJpQSSc3RyWU1WM12XXKKs6yZbk0uM3q+aKsklymzs1MQmlwjzVrcmR7kP+P0feanP775kgiAIgiAIgiAIgiAIgiAIgpDhX5um6PVvFqP6AAAAAElFTkSuQmCC;fillColor=#d5e8d4;strokeColor=#82b366;" vertex="1" parent="XGI2ahI1wu16D6c6kquG-39">
          <mxGeometry x="420" y="30" width="76.21" height="35" as="geometry" />
        </mxCell>
        <mxCell id="XGI2ahI1wu16D6c6kquG-54" value="" style="shape=image;verticalLabelPosition=bottom;labelBackgroundColor=#ffffff;verticalAlign=top;aspect=fixed;imageAspect=0;image=https://rosolutions.com.mx/blog/wp-content/uploads/2019/02/git.jpeg;fillColor=#d5e8d4;strokeColor=#82b366;" vertex="1" parent="XGI2ahI1wu16D6c6kquG-39">
          <mxGeometry x="510" y="30" width="58.14" height="35" as="geometry" />
        </mxCell>
        <mxCell id="XGI2ahI1wu16D6c6kquG-59" style="edgeStyle=orthogonalEdgeStyle;rounded=0;orthogonalLoop=1;jettySize=auto;html=1;entryX=0.5;entryY=0;entryDx=0;entryDy=0;fillColor=#d5e8d4;strokeColor=#82b366;" edge="1" parent="XGI2ahI1wu16D6c6kquG-39" source="XGI2ahI1wu16D6c6kquG-57" target="XGI2ahI1wu16D6c6kquG-58">
          <mxGeometry relative="1" as="geometry" />
        </mxCell>
        <mxCell id="XGI2ahI1wu16D6c6kquG-57" value="Start -&amp;gt; Every 15 Min" style="rounded=1;whiteSpace=wrap;html=1;fillColor=#d5e8d4;strokeColor=#82b366;arcSize=50;" vertex="1" parent="XGI2ahI1wu16D6c6kquG-39">
          <mxGeometry x="153.47000000000003" y="92.5" width="125" height="30" as="geometry" />
        </mxCell>
        <mxCell id="XGI2ahI1wu16D6c6kquG-61" value="Yes" style="edgeStyle=orthogonalEdgeStyle;rounded=0;orthogonalLoop=1;jettySize=auto;html=1;exitX=1;exitY=0.5;exitDx=0;exitDy=0;entryX=0.5;entryY=0;entryDx=0;entryDy=0;fillColor=#d5e8d4;strokeColor=#82b366;" edge="1" parent="XGI2ahI1wu16D6c6kquG-39" source="XGI2ahI1wu16D6c6kquG-58" target="XGI2ahI1wu16D6c6kquG-60">
          <mxGeometry relative="1" as="geometry">
            <mxPoint x="277.48999999999995" y="187.5" as="sourcePoint" />
          </mxGeometry>
        </mxCell>
        <mxCell id="XGI2ahI1wu16D6c6kquG-82" value="No" style="edgeStyle=orthogonalEdgeStyle;rounded=0;orthogonalLoop=1;jettySize=auto;html=1;entryX=0.5;entryY=0;entryDx=0;entryDy=0;fillColor=#d5e8d4;strokeColor=#82b366;" edge="1" parent="XGI2ahI1wu16D6c6kquG-39" source="XGI2ahI1wu16D6c6kquG-58" target="XGI2ahI1wu16D6c6kquG-79">
          <mxGeometry relative="1" as="geometry" />
        </mxCell>
        <mxCell id="XGI2ahI1wu16D6c6kquG-58" value="If&lt;br&gt;ngrok not&lt;br&gt;running" style="rhombus;whiteSpace=wrap;html=1;fillColor=#d5e8d4;strokeColor=#82b366;" vertex="1" parent="XGI2ahI1wu16D6c6kquG-39">
          <mxGeometry x="173.47000000000003" y="145" width="85" height="85" as="geometry" />
        </mxCell>
        <mxCell id="XGI2ahI1wu16D6c6kquG-65" value="" style="edgeStyle=orthogonalEdgeStyle;rounded=0;orthogonalLoop=1;jettySize=auto;html=1;fillColor=#d5e8d4;strokeColor=#82b366;" edge="1" parent="XGI2ahI1wu16D6c6kquG-39" source="XGI2ahI1wu16D6c6kquG-60" target="XGI2ahI1wu16D6c6kquG-64">
          <mxGeometry relative="1" as="geometry" />
        </mxCell>
        <mxCell id="XGI2ahI1wu16D6c6kquG-60" value="Start Ngrok" style="shape=process;whiteSpace=wrap;html=1;backgroundOutline=1;fillColor=#d5e8d4;strokeColor=#82b366;" vertex="1" parent="XGI2ahI1wu16D6c6kquG-39">
          <mxGeometry x="277.49" y="220" width="82" height="30" as="geometry" />
        </mxCell>
        <mxCell id="XGI2ahI1wu16D6c6kquG-89" style="edgeStyle=orthogonalEdgeStyle;rounded=0;orthogonalLoop=1;jettySize=auto;html=1;exitX=0.5;exitY=1;exitDx=0;exitDy=0;entryX=1;entryY=0.5;entryDx=0;entryDy=0;fillColor=#d5e8d4;strokeColor=#82b366;" edge="1" parent="XGI2ahI1wu16D6c6kquG-39" source="XGI2ahI1wu16D6c6kquG-64" target="XGI2ahI1wu16D6c6kquG-70">
          <mxGeometry relative="1" as="geometry" />
        </mxCell>
        <mxCell id="XGI2ahI1wu16D6c6kquG-64" value="Get dynamic public IP" style="whiteSpace=wrap;html=1;fillColor=#d5e8d4;strokeColor=#82b366;" vertex="1" parent="XGI2ahI1wu16D6c6kquG-39">
          <mxGeometry x="250.73000000000002" y="270" width="136" height="35" as="geometry" />
        </mxCell>
        <mxCell id="XGI2ahI1wu16D6c6kquG-66" value="Git push IP to GitHub Repo" style="whiteSpace=wrap;html=1;fillColor=#d5e8d4;strokeColor=#82b366;" vertex="1" parent="XGI2ahI1wu16D6c6kquG-39">
          <mxGeometry x="133.23000000000002" y="432.5" width="130" height="50" as="geometry" />
        </mxCell>
        <mxCell id="XGI2ahI1wu16D6c6kquG-94" value="" style="edgeStyle=orthogonalEdgeStyle;rounded=0;orthogonalLoop=1;jettySize=auto;html=1;fillColor=#d5e8d4;strokeColor=#82b366;" edge="1" parent="XGI2ahI1wu16D6c6kquG-39" source="XGI2ahI1wu16D6c6kquG-76" target="XGI2ahI1wu16D6c6kquG-93">
          <mxGeometry relative="1" as="geometry" />
        </mxCell>
        <mxCell id="XGI2ahI1wu16D6c6kquG-76" value="Start -&amp;gt; Every Day" style="rounded=1;whiteSpace=wrap;html=1;fillColor=#d5e8d4;strokeColor=#82b366;arcSize=50;" vertex="1" parent="XGI2ahI1wu16D6c6kquG-39">
          <mxGeometry x="452.5" y="110" width="125" height="30" as="geometry" />
        </mxCell>
        <mxCell id="XGI2ahI1wu16D6c6kquG-91" style="edgeStyle=orthogonalEdgeStyle;rounded=0;orthogonalLoop=1;jettySize=auto;html=1;exitX=0.5;exitY=1;exitDx=0;exitDy=0;entryX=0.5;entryY=0;entryDx=0;entryDy=0;fillColor=#d5e8d4;strokeColor=#82b366;" edge="1" parent="XGI2ahI1wu16D6c6kquG-39" source="XGI2ahI1wu16D6c6kquG-77" target="XGI2ahI1wu16D6c6kquG-74">
          <mxGeometry relative="1" as="geometry" />
        </mxCell>
        <mxCell id="XGI2ahI1wu16D6c6kquG-77" value="GitHub Pages redirects to IP" style="whiteSpace=wrap;html=1;fillColor=#d5e8d4;strokeColor=#82b366;" vertex="1" parent="XGI2ahI1wu16D6c6kquG-39">
          <mxGeometry x="138.23000000000002" y="505" width="120" height="47.5" as="geometry" />
        </mxCell>
        <mxCell id="XGI2ahI1wu16D6c6kquG-78" value="" style="edgeStyle=orthogonalEdgeStyle;rounded=0;orthogonalLoop=1;jettySize=auto;html=1;fillColor=#d5e8d4;strokeColor=#82b366;" edge="1" parent="XGI2ahI1wu16D6c6kquG-39" source="XGI2ahI1wu16D6c6kquG-66" target="XGI2ahI1wu16D6c6kquG-77">
          <mxGeometry relative="1" as="geometry" />
        </mxCell>
        <mxCell id="XGI2ahI1wu16D6c6kquG-74" value="End" style="rounded=1;whiteSpace=wrap;html=1;fillColor=#d5e8d4;strokeColor=#82b366;arcSize=50;" vertex="1" parent="XGI2ahI1wu16D6c6kquG-39">
          <mxGeometry x="172.23000000000002" y="572.5" width="52" height="30" as="geometry" />
        </mxCell>
        <mxCell id="XGI2ahI1wu16D6c6kquG-92" style="edgeStyle=orthogonalEdgeStyle;rounded=0;orthogonalLoop=1;jettySize=auto;html=1;exitX=0.5;exitY=1;exitDx=0;exitDy=0;entryX=0.5;entryY=0;entryDx=0;entryDy=0;fillColor=#d5e8d4;strokeColor=#82b366;" edge="1" parent="XGI2ahI1wu16D6c6kquG-39" source="XGI2ahI1wu16D6c6kquG-70" target="XGI2ahI1wu16D6c6kquG-66">
          <mxGeometry relative="1" as="geometry" />
        </mxCell>
        <mxCell id="XGI2ahI1wu16D6c6kquG-70" value="" style="ellipse;whiteSpace=wrap;html=1;aspect=fixed;fillColor=#d5e8d4;strokeColor=#82b366;" vertex="1" parent="XGI2ahI1wu16D6c6kquG-39">
          <mxGeometry x="190.73000000000002" y="402.5" width="15" height="15" as="geometry" />
        </mxCell>
        <mxCell id="XGI2ahI1wu16D6c6kquG-83" value="Yes" style="edgeStyle=orthogonalEdgeStyle;rounded=0;orthogonalLoop=1;jettySize=auto;html=1;exitX=1;exitY=0.5;exitDx=0;exitDy=0;entryX=0.5;entryY=0;entryDx=0;entryDy=0;fillColor=#d5e8d4;strokeColor=#82b366;" edge="1" parent="XGI2ahI1wu16D6c6kquG-39" source="XGI2ahI1wu16D6c6kquG-79" target="XGI2ahI1wu16D6c6kquG-80">
          <mxGeometry relative="1" as="geometry" />
        </mxCell>
        <mxCell id="XGI2ahI1wu16D6c6kquG-87" value="No" style="edgeStyle=orthogonalEdgeStyle;rounded=0;orthogonalLoop=1;jettySize=auto;html=1;exitX=0;exitY=0.5;exitDx=0;exitDy=0;entryX=0;entryY=0.5;entryDx=0;entryDy=0;fillColor=#d5e8d4;strokeColor=#82b366;" edge="1" parent="XGI2ahI1wu16D6c6kquG-39" source="XGI2ahI1wu16D6c6kquG-79" target="XGI2ahI1wu16D6c6kquG-84">
          <mxGeometry relative="1" as="geometry" />
        </mxCell>
        <mxCell id="XGI2ahI1wu16D6c6kquG-79" value="If&lt;br&gt;dynamic IP&lt;br&gt;changed" style="rhombus;whiteSpace=wrap;html=1;fillColor=#d5e8d4;strokeColor=#82b366;" vertex="1" parent="XGI2ahI1wu16D6c6kquG-39">
          <mxGeometry x="49.97000000000001" y="212.5" width="85" height="85" as="geometry" />
        </mxCell>
        <mxCell id="XGI2ahI1wu16D6c6kquG-85" style="edgeStyle=orthogonalEdgeStyle;rounded=0;orthogonalLoop=1;jettySize=auto;html=1;exitX=0.5;exitY=1;exitDx=0;exitDy=0;entryX=1;entryY=0.5;entryDx=0;entryDy=0;fillColor=#d5e8d4;strokeColor=#82b366;" edge="1" parent="XGI2ahI1wu16D6c6kquG-39" source="XGI2ahI1wu16D6c6kquG-80" target="XGI2ahI1wu16D6c6kquG-84">
          <mxGeometry relative="1" as="geometry" />
        </mxCell>
        <mxCell id="XGI2ahI1wu16D6c6kquG-80" value="Get dynamic public IP" style="whiteSpace=wrap;html=1;fillColor=#d5e8d4;strokeColor=#82b366;" vertex="1" parent="XGI2ahI1wu16D6c6kquG-39">
          <mxGeometry x="92.97" y="305" width="136" height="35" as="geometry" />
        </mxCell>
        <mxCell id="XGI2ahI1wu16D6c6kquG-90" style="edgeStyle=orthogonalEdgeStyle;rounded=0;orthogonalLoop=1;jettySize=auto;html=1;exitX=0.5;exitY=1;exitDx=0;exitDy=0;entryX=0;entryY=0.5;entryDx=0;entryDy=0;fillColor=#d5e8d4;strokeColor=#82b366;" edge="1" parent="XGI2ahI1wu16D6c6kquG-39" source="XGI2ahI1wu16D6c6kquG-84" target="XGI2ahI1wu16D6c6kquG-70">
          <mxGeometry relative="1" as="geometry" />
        </mxCell>
        <mxCell id="XGI2ahI1wu16D6c6kquG-84" value="" style="ellipse;whiteSpace=wrap;html=1;aspect=fixed;fillColor=#d5e8d4;strokeColor=#82b366;" vertex="1" parent="XGI2ahI1wu16D6c6kquG-39">
          <mxGeometry x="84.97" y="360" width="15" height="15" as="geometry" />
        </mxCell>
        <mxCell id="XGI2ahI1wu16D6c6kquG-96" style="edgeStyle=orthogonalEdgeStyle;rounded=0;orthogonalLoop=1;jettySize=auto;html=1;exitX=0.5;exitY=1;exitDx=0;exitDy=0;entryX=0.5;entryY=0;entryDx=0;entryDy=0;fillColor=#d5e8d4;strokeColor=#82b366;" edge="1" parent="XGI2ahI1wu16D6c6kquG-39" source="XGI2ahI1wu16D6c6kquG-93" target="XGI2ahI1wu16D6c6kquG-95">
          <mxGeometry relative="1" as="geometry" />
        </mxCell>
        <mxCell id="XGI2ahI1wu16D6c6kquG-93" value="BackUp Database" style="rounded=0;whiteSpace=wrap;html=1;fillColor=#d5e8d4;strokeColor=#82b366;" vertex="1" parent="XGI2ahI1wu16D6c6kquG-39">
          <mxGeometry x="455" y="170" width="120" height="40" as="geometry" />
        </mxCell>
        <mxCell id="XGI2ahI1wu16D6c6kquG-98" style="edgeStyle=orthogonalEdgeStyle;rounded=0;orthogonalLoop=1;jettySize=auto;html=1;exitX=0.5;exitY=1;exitDx=0;exitDy=0;entryX=0.5;entryY=0;entryDx=0;entryDy=0;fillColor=#d5e8d4;strokeColor=#82b366;" edge="1" parent="XGI2ahI1wu16D6c6kquG-39" source="XGI2ahI1wu16D6c6kquG-95" target="XGI2ahI1wu16D6c6kquG-97">
          <mxGeometry relative="1" as="geometry" />
        </mxCell>
        <mxCell id="XGI2ahI1wu16D6c6kquG-95" value="Git push Database to GitHub Repo" style="whiteSpace=wrap;html=1;fillColor=#d5e8d4;strokeColor=#82b366;" vertex="1" parent="XGI2ahI1wu16D6c6kquG-39">
          <mxGeometry x="450" y="227.5" width="130" height="50" as="geometry" />
        </mxCell>
        <mxCell id="XGI2ahI1wu16D6c6kquG-97" value="End" style="rounded=1;whiteSpace=wrap;html=1;fillColor=#d5e8d4;strokeColor=#82b366;arcSize=50;" vertex="1" parent="XGI2ahI1wu16D6c6kquG-39">
          <mxGeometry x="489" y="292.5" width="52" height="30" as="geometry" />
        </mxCell>
        <mxCell id="XGI2ahI1wu16D6c6kquG-55" value="" style="shape=image;verticalLabelPosition=bottom;labelBackgroundColor=#ffffff;verticalAlign=top;aspect=fixed;imageAspect=0;image=https://cdn1.iconfinder.com/data/icons/stopwatch-2/100/stopwatch-21-512.png;fillColor=#d5e8d4;strokeColor=#82b366;" vertex="1" parent="XGI2ahI1wu16D6c6kquG-39">
          <mxGeometry x="570" y="-20" width="70" height="70" as="geometry" />
        </mxCell>
      </root>
    </mxGraphModel>
  </diagram>
</mxfile>
